<svg width="24" height="24" viewBox="0 0 24 24" fill="none" xmlns="http://www.w3.org/2000/svg">
<g id="Discord">
<path id="shape" fill-rule="evenodd" clip-rule="evenodd" d="M18.9566 5.90546C21.2154 9.10171 22.3309 12.707 21.9139 16.8575C21.9121 16.8751 21.9026 16.8912 21.8876 16.9018C20.1771 18.1106 18.5199 18.8442 16.8859 19.3307C16.8598 19.3384 16.8316 19.3292 16.8157 19.3079C16.4382 18.8024 16.0952 18.2694 15.7947 17.7098C15.7774 17.6768 15.7932 17.6371 15.8287 17.6241C16.3734 17.4266 16.8914 17.1898 17.3897 16.9095C17.4289 16.8874 17.4314 16.8332 17.3952 16.8072C17.2894 16.7317 17.1847 16.6523 17.0844 16.5729C17.0657 16.5582 17.0404 16.5553 17.0192 16.5652C13.7844 18.0028 10.2409 18.0028 6.96792 16.5652C6.94667 16.556 6.92142 16.5592 6.90317 16.5736C6.80317 16.653 6.69817 16.7317 6.59342 16.8072C6.55717 16.8332 6.56017 16.8874 6.59967 16.9095C7.09792 17.1845 7.61592 17.4266 8.15992 17.6251C8.19517 17.6381 8.21192 17.6768 8.19442 17.7098C7.90042 18.2701 7.55742 18.8031 7.17292 19.3086C7.15617 19.3291 7.12867 19.3384 7.10267 19.3307C5.47642 18.8442 3.81917 18.1106 2.10868 16.9018C2.09443 16.8912 2.08418 16.8744 2.08268 16.8568C1.73418 13.2667 2.44442 9.63154 5.03717 5.90474C5.04342 5.89487 5.05292 5.88717 5.06392 5.8826C6.33967 5.3191 7.70642 4.90453 9.13491 4.66777C9.16091 4.66392 9.18691 4.67547 9.20041 4.6976C9.37691 4.99836 9.57866 5.38406 9.71516 5.69926C11.2209 5.4779 12.7502 5.4779 14.2874 5.69926C14.4239 5.3908 14.6187 4.99836 14.7944 4.6976C14.8072 4.67508 14.8337 4.66304 14.8599 4.66777C16.2892 4.90525 17.6559 5.31982 18.9306 5.8826C18.9419 5.88717 18.9511 5.89487 18.9566 5.90546ZM10.4808 12.7316C10.4966 11.6703 9.69256 10.7921 8.68331 10.7921C7.68232 10.7921 6.88607 11.6626 6.88607 12.7316C6.88607 13.8004 7.69807 14.6709 8.68331 14.6709C9.68456 14.6709 10.4808 13.8004 10.4808 12.7316ZM17.1263 12.7316C17.1421 11.6703 16.3381 10.7921 15.3291 10.7921C14.3278 10.7921 13.5316 11.6626 13.5316 12.7316C13.5316 13.8004 14.3436 14.6709 15.3291 14.6709C16.3381 14.6709 17.1263 13.8004 17.1263 12.7316Z" fill="#5565FB"/>
</g>
</svg>
