<svg width="20" height="20" viewBox="0 0 20 20" fill="none" xmlns="http://www.w3.org/2000/svg">
<path fill-rule="evenodd" clip-rule="evenodd" d="M16.0871 4.66725C18.0635 7.46397 19.0395 10.6186 18.6747 14.2503C18.6731 14.2657 18.6648 14.2798 18.6517 14.289C17.155 15.3468 15.7049 15.9887 14.2752 16.4144C14.2523 16.421 14.2276 16.413 14.2137 16.3944C13.8834 15.952 13.5833 15.4857 13.3203 14.996C13.3052 14.9672 13.319 14.9324 13.3501 14.9211C13.8267 14.7482 14.28 14.541 14.7159 14.2958C14.7503 14.2764 14.7525 14.229 14.7208 14.2063C14.6282 14.1402 14.5366 14.0707 14.4489 14.0012C14.4324 13.9884 14.4104 13.9859 14.3918 13.9945C11.5614 15.2524 8.4608 15.2524 5.59693 13.9945C5.57833 13.9865 5.55624 13.9892 5.54027 14.0019C5.45277 14.0713 5.3609 14.1402 5.26924 14.2063C5.23752 14.229 5.24015 14.2764 5.27471 14.2958C5.71068 14.5364 6.16393 14.7482 6.63993 14.9219C6.67077 14.9333 6.68543 14.9672 6.67011 14.996C6.41286 15.4863 6.11274 15.9527 5.7763 16.395C5.76165 16.4129 5.73758 16.4211 5.71483 16.4144C4.29187 15.9887 2.84178 15.3468 1.34509 14.289C1.33262 14.2798 1.32365 14.265 1.32234 14.2497C1.0174 11.1083 1.63887 7.92756 3.90752 4.66662C3.91299 4.65798 3.92131 4.65125 3.93093 4.64725C5.04721 4.15418 6.24311 3.79143 7.49305 3.58426C7.5158 3.5809 7.53855 3.591 7.55036 3.61037C7.7048 3.87354 7.88133 4.21102 8.00077 4.48682C9.3183 4.29313 10.6564 4.29313 12.0015 4.48682C12.1209 4.21692 12.2913 3.87354 12.4451 3.61037C12.4563 3.59066 12.4795 3.58013 12.5024 3.58426C13.753 3.79206 14.9489 4.15481 16.0643 4.64725C16.0742 4.65125 16.0823 4.65798 16.0871 4.66725ZM8.67071 10.6401C8.68449 9.7114 7.98099 8.94295 7.0979 8.94295C6.22203 8.94295 5.52531 9.70466 5.52531 10.6401C5.52531 11.5752 6.23581 12.337 7.0979 12.337C7.97399 12.337 8.67071 11.5752 8.67071 10.6401ZM14.4857 10.6401C14.4995 9.7114 13.796 8.94295 12.9131 8.94295C12.037 8.94295 11.3403 9.70466 11.3403 10.6401C11.3403 11.5752 12.0508 12.337 12.9131 12.337C13.796 12.337 14.4857 11.5752 14.4857 10.6401Z" fill="#919191"/>
</svg>
