<svg width="24" height="24" viewBox="0 0 24 24" fill="none" xmlns="http://www.w3.org/2000/svg">
<g id="Group 2559">
<path id="Vector" d="M13.2833 12C13.2878 13.5014 12.6961 14.9433 11.6384 16.0089C10.5806 17.0745 9.14313 17.6767 7.64168 17.6833C6.14024 17.6767 4.70279 17.0745 3.64501 16.0089C2.58723 14.9433 1.99559 13.5014 2.00002 12C1.99559 10.4985 2.58723 9.05668 3.64501 7.99109C4.70279 6.9255 6.14024 6.32327 7.64168 6.31665C9.14313 6.32327 10.5806 6.9255 11.6384 7.99109C12.6961 9.05668 13.2878 10.4985 13.2833 12ZM19.4667 12C19.4667 14.95 18.2083 17.35 16.65 17.35C15.0917 17.35 13.825 14.95 13.825 12C13.825 9.04998 15.0917 6.64998 16.65 6.64998C18.2083 6.64998 19.4667 9.04998 19.4667 12ZM22 12C22 14.6416 21.5583 16.7916 21.0083 16.7916C20.4583 16.7916 20.0167 14.6416 20.0167 12C20.0167 9.35831 20.4583 7.20832 21.0083 7.20832C21.5583 7.20832 22 9.35831 22 12Z" fill="black"/>
</g>
</svg>
