<svg width="20" height="20" viewBox="0 0 20 20" fill="none" xmlns="http://www.w3.org/2000/svg">
<path fill-rule="evenodd" clip-rule="evenodd" d="M19.3525 9.31283C19.3525 8.18249 18.4362 7.26617 17.3058 7.26617C16.754 7.26617 16.2544 7.48555 15.8862 7.84039C14.4871 6.83094 12.5594 6.17879 10.4124 6.10393L11.3448 1.71717L14.3909 2.36479C14.4281 3.13926 15.0623 3.7573 15.8459 3.7573C16.6535 3.7573 17.3081 3.10269 17.3081 2.29534C17.3081 1.48794 16.6535 0.833336 15.8459 0.833336C15.2716 0.833336 14.7799 1.16765 14.5407 1.64935L11.1392 0.926268C11.0446 0.905693 10.9453 0.9242 10.8643 0.977262C10.7827 1.03008 10.7259 1.11317 10.7056 1.20792L9.66447 6.1025C7.48598 6.16294 5.52752 6.81593 4.11035 7.8367C3.74276 7.48407 3.24458 7.26617 2.69486 7.26617C1.56447 7.26617 0.647949 8.18249 0.647949 9.31283C0.647949 10.1445 1.14485 10.8589 1.85725 11.1793C1.82579 11.3828 1.80852 11.5892 1.80852 11.7983C1.80852 14.9474 5.47406 17.5 9.99568 17.5C14.5173 17.5 18.183 14.9474 18.183 11.7983C18.183 11.5907 18.166 11.3854 18.135 11.1833C18.8518 10.8649 19.3525 10.148 19.3525 9.31283ZM13.4717 14.6384C12.4739 15.6347 10.5619 15.7122 9.99982 15.7122C9.4373 15.7122 7.52506 15.6347 6.52855 14.6382C6.38054 14.4901 6.38054 14.2502 6.52855 14.1022C6.67637 13.9546 6.91652 13.9544 7.06434 14.1022C7.69325 14.7313 9.03865 14.9546 9.99982 14.9546C10.9607 14.9546 12.3064 14.7313 12.9363 14.102C13.0847 13.9544 13.3244 13.9546 13.4721 14.1024C13.6201 14.2506 13.6199 14.4903 13.4717 14.6384ZM13.2142 12.2372C12.4083 12.2372 11.7523 11.5814 11.7523 10.7754C11.7523 9.96912 12.4083 9.31283 13.2142 9.31283C14.0204 9.31283 14.6764 9.96912 14.6764 10.7754C14.6764 11.5814 14.0204 12.2372 13.2142 12.2372ZM5.31965 10.7752C5.31965 9.96892 5.97569 9.31283 6.78225 9.31283C7.58797 9.31283 8.24361 9.96892 8.24361 10.7752C8.24361 11.5812 7.58797 12.2368 6.78225 12.2368C5.97569 12.2368 5.31965 11.5812 5.31965 10.7752Z" fill="#919191"/>
</svg>
