<svg width="20" height="20" viewBox="0 0 20 20" fill="none" xmlns="http://www.w3.org/2000/svg">
<path fill-rule="evenodd" clip-rule="evenodd" d="M9.99984 1.66666C5.39746 1.66666 1.6665 5.39762 1.6665 10C1.6665 14.6024 5.39746 18.3333 9.99984 18.3333C14.6022 18.3333 18.3332 14.6024 18.3332 10C18.3332 5.39762 14.6022 1.66666 9.99984 1.66666ZM9.99816 7.375C9.0919 7.75194 7.28065 8.53212 4.56443 9.71554C4.12335 9.89094 3.8923 10.0625 3.87127 10.2303C3.83572 10.5139 4.19081 10.6255 4.67436 10.7776C4.74013 10.7983 4.80828 10.8197 4.87815 10.8424C5.35388 10.997 5.99383 11.1779 6.32651 11.1851C6.62828 11.1917 6.96509 11.0672 7.33695 10.8119C9.8748 9.09878 11.1849 8.23289 11.2671 8.21422C11.3251 8.20105 11.4055 8.18449 11.46 8.23291C11.5145 8.28134 11.5091 8.37304 11.5034 8.39765C11.4682 8.54761 10.0743 9.84348 9.35299 10.5141C9.12812 10.7231 8.96861 10.8714 8.93601 10.9053C8.86296 10.9812 8.78852 11.0529 8.71697 11.1219C8.275 11.548 7.94357 11.8675 8.73532 12.3892C9.11579 12.64 9.42025 12.8473 9.72398 13.0541C10.0557 13.28 10.3866 13.5054 10.8147 13.786C10.9237 13.8575 11.0279 13.9317 11.1293 14.004C11.5154 14.2793 11.8622 14.5265 12.2907 14.4871C12.5397 14.4642 12.7968 14.2301 12.9274 13.5318C13.2361 11.8817 13.8428 8.30638 13.9831 6.83307C13.9954 6.70399 13.9799 6.53879 13.9675 6.46627C13.9551 6.39375 13.9291 6.29043 13.8349 6.21394C13.7232 6.12336 13.5509 6.10426 13.4738 6.10562C13.1234 6.11179 12.5857 6.29875 9.99816 7.375Z" fill="#919191"/>
</svg>
