<svg width="12" height="12" viewBox="0 0 12 12" fill="none" xmlns="http://www.w3.org/2000/svg">
<g id="Frame 1312318931">
<path id="Union" d="M6 4.94956C5.16515 4.94956 4.48837 4.27278 4.48837 3.43793C4.48837 2.60308 5.16515 1.9263 6 1.9263C6.83485 1.9263 7.51163 2.60308 7.51163 3.43793C7.51163 4.27278 6.83485 4.94956 6 4.94956ZM6 6.11235C7.47704 6.11235 8.67442 4.91497 8.67442 3.43793C8.67442 1.96089 7.47704 0.76351 6 0.76351C4.52296 0.76351 3.32558 1.96089 3.32558 3.43793C3.32558 4.91497 4.52296 6.11235 6 6.11235ZM2.16279 10.0739H9.83721V9.17899C7.44415 7.88104 4.55585 7.88104 2.16279 9.17899V10.0739ZM1 9.01108C1 8.69568 1.16929 8.40455 1.4434 8.24855C4.2684 6.6408 7.7316 6.6408 10.5566 8.24855C10.8307 8.40455 11 8.69568 11 9.01108V10.7716C11 11.0285 10.7918 11.2367 10.5349 11.2367H1.46512C1.20824 11.2367 1 11.0285 1 10.7716V9.01108Z" fill="white"/>
</g>
</svg>
