<svg width="12" height="12" viewBox="0 0 12 12" fill="none" xmlns="http://www.w3.org/2000/svg">
<g id="Group 2568">
<path id="Subtract" d="M11.25 6C11.25 8.89949 8.8995 11.25 6 11.25C3.10051 11.25 0.75 8.89949 0.75 6C0.75 3.1005 3.10051 0.75 6 0.75C8.8995 0.75 11.25 3.1005 11.25 6ZM5.37946 7.89956C5.47891 7.90234 5.57925 7.86577 5.65515 7.78987L8.73106 4.71396C8.78964 4.65538 8.78964 4.56041 8.73106 4.50183L8.28028 4.05105C8.2217 3.99247 8.12673 3.99247 8.06815 4.05105L5.38959 6.7296L3.93189 5.2719C3.87331 5.21332 3.77833 5.21332 3.71976 5.2719L3.26897 5.72268C3.2104 5.78126 3.2104 5.87623 3.26897 5.93481L5.12402 7.78985C5.19477 7.8606 5.28676 7.89717 5.37946 7.89956Z" fill="#3888FF"/>
</g>
</svg>
