<svg width="12" height="12" viewBox="0 0 12 12" fill="none" xmlns="http://www.w3.org/2000/svg">
<g id="Group 2536">
<g id="Union">
<path d="M2.76494 9.9774C2.70636 10.036 2.61139 10.036 2.55281 9.9774L2.02248 9.44707C1.9639 9.38849 1.9639 9.29352 2.02248 9.23494L5.25747 5.99995L2.02245 2.76493C1.96387 2.70635 1.96387 2.61137 2.02245 2.55279L2.55278 2.02246C2.61136 1.96389 2.70633 1.96389 2.76491 2.02246L5.99993 5.25749L9.23497 2.02245C9.29355 1.96387 9.38852 1.96387 9.4471 2.02245L9.97743 2.55278C10.036 2.61136 10.036 2.70633 9.97743 2.76491L6.7424 5.99995L9.9774 9.23495C10.036 9.29353 10.036 9.38851 9.9774 9.44709L9.44707 9.97742C9.38849 10.036 9.29352 10.036 9.23494 9.97742L5.99993 6.74241L2.76494 9.9774Z" fill="#764DF1"/>
</g>
</g>
</svg>
