<svg width="16" height="16" viewBox="0 0 16 16" fill="none" xmlns="http://www.w3.org/2000/svg">
<g id="Group 2536">
<g id="Union">
<path d="M3.68724 13.3029C3.60914 13.381 3.4825 13.381 3.4044 13.3029L2.69729 12.5958C2.61919 12.5177 2.61919 12.391 2.69729 12.3129L7.01061 7.99961L2.69725 3.68624C2.61915 3.60814 2.61915 3.48151 2.69725 3.4034L3.40436 2.69629C3.48246 2.61819 3.60909 2.61819 3.6872 2.69629L8.00056 7.00966L12.3139 2.69627C12.392 2.61817 12.5187 2.61817 12.5968 2.69627L13.3039 3.40338C13.382 3.48149 13.382 3.60812 13.3039 3.68622L8.99051 7.99961L13.3039 12.3129C13.382 12.3911 13.382 12.5177 13.3039 12.5958L12.5967 13.3029C12.5186 13.381 12.392 13.381 12.3139 13.3029L8.00056 8.98956L3.68724 13.3029Z" fill="#1A1A1A"/>
</g>
</g>
</svg>
