<svg width="65" height="65" viewBox="0 0 65 65" fill="none" xmlns="http://www.w3.org/2000/svg">
<path fill-rule="evenodd" clip-rule="evenodd" d="M13.8335 14.8334L23.8335 31.5H3.8335L13.8335 14.8334ZM23.8335 31.5001C23.8335 37.023 19.3563 41.5001 13.8335 41.5001C8.31066 41.5001 3.83351 37.023 3.83351 31.5001H23.8335Z" fill="#FA9D2B"/>
<path fill-rule="evenodd" clip-rule="evenodd" d="M51.1665 14.8334L61.1665 31.5H41.1665L51.1665 14.8334ZM61.1665 31.5001C61.1665 37.023 56.6893 41.5001 51.1665 41.5001C45.6437 41.5001 41.1665 37.023 41.1665 31.5001H61.1665Z" fill="#FA9D2B"/>
<path d="M32.5 8.5V56.5" stroke="#333333" stroke-width="4" stroke-linecap="round" stroke-linejoin="round"/>
<path d="M13.8333 16.5H32.5H51.1667" stroke="#333333" stroke-width="4" stroke-linecap="round" stroke-linejoin="round"/>
<path d="M13.8333 16.5H32.5H51.1667" stroke="#333333" stroke-width="4" stroke-linecap="round" stroke-linejoin="round"/>
<path d="M51.1667 56.5H32.5H13.8333" stroke="#333333" stroke-width="4" stroke-linecap="round" stroke-linejoin="round"/>
</svg>
