<svg width="65" height="65" viewBox="0 0 65 65" fill="none" xmlns="http://www.w3.org/2000/svg">
<path fill-rule="evenodd" clip-rule="evenodd" d="M31.7609 9.30178C32.2308 9.13932 32.7417 9.13932 33.2116 9.30178L59.8783 18.5208C60.7699 18.8291 61.3693 19.6672 61.3729 20.6105C61.3765 21.5539 60.7835 22.3965 59.8943 22.7116L33.2276 32.1592C32.748 32.3291 32.2246 32.3291 31.7449 32.1592L5.07825 22.7116C4.18903 22.3965 3.59602 21.5539 3.59963 20.6105C3.60323 19.6672 4.20265 18.8291 5.09425 18.5208L31.7609 9.30178Z" fill="#FA9D2B"/>
<path fill-rule="evenodd" clip-rule="evenodd" d="M3.72485 31.7738C4.12988 30.6166 5.39635 30.0068 6.55359 30.4119L32.4869 39.4885L58.4202 30.4119C59.5774 30.0068 60.8439 30.6166 61.2489 31.7738C61.6539 32.9311 61.0442 34.1976 59.8869 34.6026L33.2203 43.9359C32.7455 44.1021 32.2283 44.1021 31.7535 43.9359L5.08684 34.6026C3.9296 34.1976 3.31982 32.9311 3.72485 31.7738Z" fill="#333333"/>
<path fill-rule="evenodd" clip-rule="evenodd" d="M3.72485 43.5478C4.12988 42.3905 5.39635 41.7808 6.55359 42.1858L32.4869 51.2624L58.4202 42.1858C59.5774 41.7808 60.8439 42.3905 61.2489 43.5478C61.6539 44.705 61.0442 45.9715 59.8869 46.3765L33.2203 55.7099C32.7455 55.876 32.2283 55.876 31.7535 55.7099L5.08684 46.3765C3.9296 45.9715 3.31982 44.705 3.72485 43.5478Z" fill="#333333"/>
</svg>
