<svg width="65" height="65" viewBox="0 0 65 65" fill="none" xmlns="http://www.w3.org/2000/svg">
<path d="M52.625 5.5H12.375C10.7872 5.5 9.5 6.70883 9.5 8.2V56.8C9.5 58.2912 10.7872 59.5 12.375 59.5H52.625C54.2129 59.5 55.5 58.2912 55.5 56.8V8.2C55.5 6.70883 54.2129 5.5 52.625 5.5Z" stroke="#333333" stroke-width="4" stroke-linecap="round" stroke-linejoin="round"/>
<path d="M21 38H45" stroke="#333333" stroke-width="4" stroke-linecap="round" stroke-linejoin="round"/>
<path d="M21 49.5H33" stroke="#333333" stroke-width="4" stroke-linecap="round" stroke-linejoin="round"/>
<path d="M43.5 15.5H21.5C20.3954 15.5 19.5 16.3954 19.5 17.5V26.5C19.5 27.6046 20.3954 28.5 21.5 28.5H43.5C44.6046 28.5 45.5 27.6046 45.5 26.5V17.5C45.5 16.3954 44.6046 15.5 43.5 15.5Z" fill="#FA9D2B"/>
</svg>
