<svg width="24" height="24" viewBox="0 0 24 24" fill="none" xmlns="http://www.w3.org/2000/svg">
<g id="Icon / Coin" opacity="0.6">
<circle id="Circle" cx="12" cy="12" r="11.75" fill="white" stroke="#EDEDED" stroke-width="0.5"/>
<path id="Shape" fill-rule="evenodd" clip-rule="evenodd" d="M13.0955 7.75202C13.9105 7.75202 14.5711 7.09136 14.5711 6.2764C14.5711 5.46144 13.9105 4.80078 13.0955 4.80078C12.2805 4.80078 11.6199 5.46144 11.6199 6.2764C11.6199 7.09136 12.2805 7.75202 13.0955 7.75202ZM19.7612 12.0008C19.7612 13.6588 18.4171 15.0029 16.7591 15.0029C15.1011 15.0029 13.757 13.6588 13.757 12.0008C13.757 10.3428 15.1011 8.99866 16.7591 8.99866C18.4171 8.99866 19.7612 10.3428 19.7612 12.0008ZM14.5711 17.7252C14.5711 18.5401 13.9105 19.2008 13.0955 19.2008C12.2805 19.2008 11.6199 18.5401 11.6199 17.7252C11.6199 16.9102 12.2805 16.2495 13.0955 16.2495C13.9105 16.2495 14.5711 16.9102 14.5711 17.7252ZM5.53932 7.85378C5.10681 8.99866 5.71741 10.2962 6.86229 10.7287C7.62554 11.0086 8.43967 10.8559 9.02483 10.3725C9.55911 9.99089 10.246 9.86368 10.9075 10.1181C11.34 10.2707 11.6708 10.5506 11.8997 10.9068L11.9252 10.9577C12.027 11.1103 12.1796 11.263 12.3831 11.3139C12.8411 11.4919 13.3754 11.2375 13.528 10.7796C13.7061 10.3216 13.4517 9.78735 12.9937 9.6347C12.7902 9.55838 12.5867 9.55838 12.3831 9.6347C11.9761 9.76191 11.5181 9.76191 11.0856 9.60926C10.4496 9.38029 10.0171 8.87145 9.83897 8.28629L9.81352 8.23541C9.81352 8.20997 9.81353 8.18453 9.78808 8.18453V8.13364C9.60999 7.42128 9.1266 6.81068 8.38879 6.55626C7.24391 6.09831 5.94639 6.68347 5.53932 7.85378ZM6.86229 13.2729C5.71741 13.7054 5.10681 15.0029 5.53932 16.1478C5.97183 17.3181 7.24391 17.9033 8.38879 17.4453C9.1266 17.1909 9.60999 16.5803 9.78808 15.8679V15.817C9.81353 15.817 9.81352 15.7916 9.81352 15.7662L9.83897 15.7153C10.0171 15.1301 10.4496 14.6213 11.0856 14.3923C11.5181 14.2396 11.9761 14.2396 12.3831 14.3669C12.5867 14.4432 12.7902 14.4432 12.9937 14.3669C13.4517 14.2142 13.7061 13.6799 13.528 13.222C13.3754 12.764 12.8411 12.5096 12.3831 12.6877C12.1796 12.7386 12.027 12.8912 11.9252 13.0439L11.8997 13.0948C11.6708 13.451 11.34 13.7308 10.9075 13.8835C10.246 14.1379 9.55911 14.0107 9.02483 13.629C8.43967 13.1457 7.62554 12.993 6.86229 13.2729Z" fill="#266CD3"/>
</g>
</svg>
