<svg width="99" height="48" viewBox="0 0 99 48" fill="none" xmlns="http://www.w3.org/2000/svg">
<path fill-rule="evenodd" clip-rule="evenodd" d="M43.7984 22.6647H38.6192C38.2172 22.6647 37.9097 22.3575 37.9097 21.9557V13.1403L34.5279 22.192C34.4333 22.4756 34.1495 22.6411 33.8657 22.6411H29.6798C29.396 22.6411 29.1122 22.452 29.0176 22.192L25.6121 13.0931V21.9321C25.6121 22.3338 25.3047 22.6411 24.9026 22.6411H19.7235C19.3214 22.6411 19.014 22.3338 19.014 21.9321V0.70901C19.014 0.307238 19.3214 0 19.7235 0H25.825C26.1088 0 26.3689 0.165438 26.4871 0.449042L31.7846 13.5185L37.0347 0.449042C37.153 0.189072 37.4131 0 37.6969 0H43.7748C44.1768 0 44.4842 0.307238 44.4842 0.70901V21.9321C44.5079 22.3338 44.1768 22.6647 43.7984 22.6647ZM39.3523 21.2467H43.0889V1.44166H38.1935L32.4704 15.6928C32.3522 15.9527 32.092 16.1418 31.8082 16.1418C31.5244 16.1418 31.2643 15.9764 31.146 15.6928L25.3756 1.44166H20.4566V21.2467H24.2168V9.1935C24.2168 8.86263 24.4533 8.55539 24.808 8.50812C25.1391 8.43722 25.4702 8.62629 25.5885 8.95717L30.2001 21.2467H33.3927L37.9807 8.9808C38.0989 8.64993 38.43 8.46086 38.7611 8.53176C39.0922 8.60266 39.3523 8.88626 39.3523 9.21713V21.2467ZM11.5172 22.6647H6.33801C5.93597 22.6647 5.62853 22.3575 5.62853 21.9557V5.57755H0.709478C0.307441 5.57755 0 5.27031 0 4.86854V0.732645C0 0.330873 0.307441 0.0236347 0.709478 0.0236347H17.1457C17.5478 0.0236347 17.8552 0.330873 17.8552 0.732645V4.86854C17.8552 5.27031 17.5478 5.57755 17.1457 5.57755H12.2267V21.9557C12.2267 22.3338 11.8956 22.6647 11.5172 22.6647ZM7.04748 21.2467H10.8077V4.86854C10.8077 4.46677 11.1152 4.15953 11.5172 4.15953H16.4362V1.44166H1.41896V4.15953H6.33801C6.74004 4.15953 7.04748 4.46677 7.04748 4.86854V21.2467ZM58.3428 22.6647H64.1842C64.4443 22.6647 64.6808 22.5229 64.799 22.3338C64.9173 22.1211 64.9173 21.8375 64.799 21.6248L60.3293 13.9675C61.63 13.4239 62.647 12.644 63.3801 11.6278C64.2551 10.3988 64.7045 9.00443 64.7045 7.44461C64.7045 6.07385 64.3734 4.79764 63.7348 3.68685C63.0727 2.55244 62.0794 1.63073 60.7787 0.992617C59.5016 0.378141 57.9644 0.0472694 56.1907 0.0472694H47.5114C47.1094 0.0472694 46.802 0.354507 46.802 0.75628V21.9793C46.802 22.3811 47.1094 22.6883 47.5114 22.6883H52.6906C53.0927 22.6883 53.4001 22.3811 53.4001 21.9793V14.6765H53.5183L57.7279 22.3102C57.8462 22.5229 58.0827 22.6647 58.3428 22.6647ZM62.9544 21.2467H58.7685L54.5353 13.5657C54.417 13.353 54.1805 13.2112 53.9204 13.2112H52.6906C52.2886 13.2112 51.9811 13.5185 51.9811 13.9202V21.223H48.2209V1.41802H56.1907C57.7516 1.41802 59.0996 1.67799 60.1638 2.22157C61.228 2.74151 61.9848 3.45052 62.5051 4.3486C63.0254 5.24668 63.2855 6.28656 63.2855 7.39734C63.2855 8.64993 62.9308 9.76071 62.2213 10.7533C61.5354 11.7459 60.4712 12.4313 59.0759 12.8567C58.8631 12.9276 58.6975 13.0694 58.6266 13.2821C58.5556 13.4712 58.5556 13.7075 58.6739 13.8966L62.9544 21.2467ZM52.6906 10.9897H55.8833C57.0184 10.9897 57.9171 10.6824 58.532 10.0916C59.1469 9.47711 59.4543 8.64993 59.4543 7.61005C59.4543 6.61743 59.1469 5.79025 58.532 5.19941C57.9171 4.60857 57.0421 4.30133 55.9069 4.30133H52.6906C52.2886 4.30133 51.9811 4.60857 51.9811 5.01034V10.2806C51.9811 10.6824 52.2886 10.9897 52.6906 10.9897ZM55.9069 9.57164H53.4001V5.71935H55.9069C56.6637 5.71935 57.2076 5.88479 57.5387 6.21566C57.8698 6.54653 58.0354 6.99557 58.0354 7.61005C58.0354 8.27179 57.8698 8.74446 57.5387 9.07533C57.2076 9.40621 56.6637 9.57164 55.9069 9.57164ZM90.9315 22.6647H84.6645C84.3334 22.6647 84.0496 22.452 83.9786 22.1211L81.2589 10.9424L78.4447 22.1211C78.3737 22.4284 78.09 22.6647 77.7589 22.6647H71.4918C71.1607 22.6647 70.8769 22.452 70.806 22.1211L65.4139 0.89808C65.3666 0.685377 65.4139 0.472676 65.5322 0.283607C65.6741 0.118171 65.8633 0 66.0998 0H71.6337C71.9648 0 72.2722 0.236339 72.3195 0.56721L74.7554 12.8804L77.7825 0.543575C77.8535 0.236337 78.1372 0 78.4683 0H84.1442C84.4753 0 84.759 0.236337 84.83 0.543575L87.7152 12.8095L90.1511 0.56721C90.222 0.236339 90.5058 0 90.8369 0H96.3945C96.6073 0 96.8202 0.0945376 96.9621 0.283607C97.104 0.449043 97.1513 0.685377 97.0803 0.89808L91.6173 22.1211C91.5227 22.452 91.2389 22.6647 90.9315 22.6647ZM85.232 21.2467H90.3876L95.5668 1.44166H91.4754L88.4956 16.3309C88.4247 16.6617 88.1409 16.8981 87.8098 16.8981C87.4787 16.8981 87.1949 16.6617 87.124 16.3545L83.6239 1.44166H79.0596L75.3939 16.3545C75.323 16.6617 75.0392 16.8981 74.7081 16.8981H74.6845C74.3534 16.8981 74.0696 16.6617 73.9986 16.3309L71.0661 1.44166H67.0221L72.0594 21.2467H77.2149L80.5968 7.82275C80.6677 7.51551 80.9515 7.27917 81.2826 7.27917C81.6137 7.27917 81.8975 7.51551 81.9684 7.82275L85.232 21.2467ZM85.4684 47.7873C85.5867 47.9291 85.7759 48 85.9651 48C86.1306 48 86.3198 47.9291 86.4381 47.7873L98.2154 36.0177C98.3573 35.8996 98.4282 35.7105 98.4282 35.5214C98.4282 35.3324 98.3573 35.1669 98.2154 35.0251L86.7218 23.5391C86.4617 23.2792 85.9887 23.2792 85.7286 23.5391L82.7251 26.5406C82.4413 26.8006 82.4413 27.2496 82.7251 27.5332L90.7422 35.5214L82.465 43.7932C82.1812 44.0532 82.1812 44.5022 82.465 44.7858L85.4684 47.7873ZM85.9651 46.2984L83.9549 44.2895L92.2321 36.0177C92.374 35.8996 92.445 35.7105 92.445 35.5214C92.445 35.3324 92.374 35.1669 92.2321 35.0251L84.2387 27.0369L86.2489 25.0281L96.7491 35.5214L85.9651 46.2984ZM73.7857 47.7873C73.9039 47.9291 74.0931 48 74.2823 48C74.4478 48 74.637 47.9291 74.7789 47.7873L86.5563 36.0177C86.6982 35.8996 86.7691 35.7105 86.7691 35.5214C86.7691 35.3324 86.6982 35.1669 86.5563 35.0251L75.0627 23.5392C74.8026 23.2792 74.3296 23.2792 74.0695 23.5392L71.066 26.5406C70.7822 26.8006 70.7822 27.2496 71.066 27.5332L79.0595 35.5214L70.7822 43.7932C70.4984 44.0532 70.4984 44.5022 70.7822 44.7858L73.7857 47.7873ZM74.2823 46.2984L72.2721 44.2895L80.5494 36.0177C80.6913 35.8996 80.7622 35.7105 80.7622 35.5214C80.7622 35.3324 80.6913 35.1669 80.5494 35.0251L72.5559 27.0369L74.5661 25.0281L85.0664 35.5214L74.2823 46.2984ZM50.8459 41.9498C51.8392 43.6041 53.1635 44.904 54.819 45.8257C56.4744 46.7474 58.2954 47.2201 60.3056 47.2201C62.3158 47.2201 64.1368 46.7474 65.7922 45.8257C67.4477 44.904 68.7484 43.6041 69.718 41.9498C70.6876 40.2954 71.1606 38.4284 71.1606 36.3486C71.1606 34.2688 70.664 32.4018 69.718 30.7474C68.772 29.0931 67.4477 27.7932 65.7922 26.8715C64.1368 25.9498 62.2922 25.4771 60.3056 25.4771C58.3191 25.4771 56.4744 25.9498 54.819 26.8715C53.1399 27.7932 51.8155 29.0931 50.8459 30.7474C49.8763 32.4018 49.3797 34.2688 49.3797 36.3486C49.3797 38.4284 49.8763 40.2954 50.8459 41.9498ZM65.9105 36.325C65.9105 38.1684 65.3902 39.6573 64.3733 40.7917C63.3564 41.9261 61.9847 42.4934 60.3056 42.4934C58.6029 42.4934 57.2312 41.9261 56.2143 40.8154C55.1974 39.7046 54.6771 38.192 54.6771 36.325C54.6771 34.4106 55.1974 32.9217 56.2143 31.8109C57.2312 30.7002 58.6029 30.1566 60.3056 30.1566C62.0084 30.1566 63.3564 30.7238 64.3733 31.8346C65.3902 32.9454 65.9105 34.4579 65.9105 36.325ZM19.7945 27.1078C21.4736 28.0059 22.7743 29.2349 23.6729 30.842C24.5953 32.4491 25.0446 34.2925 25.0446 36.3959C25.0446 38.4756 24.5953 40.3191 23.6729 41.9262C22.7506 43.5333 21.4499 44.7858 19.7708 45.6839C18.0917 46.582 16.1288 47.0074 13.9058 47.0074H5.95964V25.7844H13.9058C16.1525 25.7844 18.1154 26.2098 19.7945 27.1078ZM18.1627 40.9336C19.2505 39.87 19.7945 38.3575 19.7945 36.3959C19.7945 34.4343 19.2505 32.9217 18.1627 31.8346C17.0748 30.7474 15.5612 30.2039 13.5984 30.2039H11.1388V42.5406H13.5984C15.5376 42.517 17.0748 41.9971 18.1627 40.9336ZM41.1735 43.2496H33.251L31.9739 47.0074H26.5582L34.2442 25.7844H40.2275L47.9135 47.0074H42.4269L41.1735 43.2496ZM39.8491 39.2556L37.224 31.4801L34.6226 39.2556H39.8491Z" fill="#FA9D2B"/>
</svg>
