<svg width="83" height="40" viewBox="0 0 83 40" fill="none" xmlns="http://www.w3.org/2000/svg">
<g id="Group 48097341">
<path id="Union" fill-rule="evenodd" clip-rule="evenodd" d="M36.4987 18.8872H32.1827C31.8477 18.8872 31.5915 18.6312 31.5915 18.2964V10.9503L28.7733 18.4934C28.6945 18.7297 28.458 18.8676 28.2215 18.8676H24.7332C24.4967 18.8676 24.2602 18.71 24.1814 18.4934L21.3435 10.9109V18.2767C21.3435 18.6115 21.0873 18.8676 20.7522 18.8676H16.4362C16.1012 18.8676 15.845 18.6115 15.845 18.2767V0.590842C15.845 0.256031 16.1012 0 16.4362 0H21.5208C21.7573 0 21.9741 0.137865 22.0727 0.374202L26.4872 11.2654L30.8623 0.374202C30.9608 0.15756 31.1776 0 31.4141 0H36.479C36.814 0 37.0702 0.256031 37.0702 0.590842V18.2767C37.0899 18.6115 36.814 18.8872 36.4987 18.8872ZM32.7937 17.7056H35.9075V1.20138H31.828L27.0587 13.0773C26.9602 13.2939 26.7434 13.4515 26.5069 13.4515C26.2704 13.4515 26.0536 13.3136 25.9551 13.0773L21.1464 1.20138H17.0472V17.7056H20.1807V7.66125C20.1807 7.38553 20.3778 7.12949 20.6734 7.0901C20.9493 7.03102 21.2252 7.18858 21.3238 7.4643L25.1668 17.7056H27.8273L31.6506 7.484C31.7492 7.20827 32.0251 7.05071 32.301 7.1098C32.5769 7.16888 32.7937 7.40522 32.7937 7.68094V17.7056ZM9.59766 18.8872H5.28167C4.94664 18.8872 4.69044 18.6312 4.69044 18.2964V4.64796H0.591232C0.2562 4.64796 0 4.39193 0 4.05712V0.610538C0 0.275727 0.2562 0.0196956 0.591232 0.0196956H14.2881C14.6231 0.0196956 14.8793 0.275727 14.8793 0.610538V4.05712C14.8793 4.39193 14.6231 4.64796 14.2881 4.64796H10.1889V18.2964C10.1889 18.6115 9.91299 18.8872 9.59766 18.8872ZM5.8729 17.7056H9.00643V4.05712C9.00643 3.72231 9.26263 3.46627 9.59766 3.46627H13.6969V1.20138H1.18246V3.46627H5.28167C5.6167 3.46627 5.8729 3.72231 5.8729 4.05712V17.7056ZM48.619 18.8872H53.4868C53.7036 18.8872 53.9006 18.7691 53.9992 18.6115C54.0977 18.4343 54.0977 18.1979 53.9992 18.0207L50.2744 11.6396C51.3583 11.1866 52.2058 10.5367 52.8167 9.68981C53.5459 8.66568 53.9203 7.50369 53.9203 6.20384C53.9203 5.06154 53.6444 3.99803 53.1123 3.07238C52.5605 2.12703 51.7328 1.35894 50.6489 0.82718C49.5846 0.315117 48.3036 0.0393912 46.8256 0.0393912H39.5928C39.2578 0.0393912 39.0016 0.295423 39.0016 0.630233V18.3161C39.0016 18.6509 39.2578 18.9069 39.5928 18.9069H43.9088C44.2438 18.9069 44.5 18.6509 44.5 18.3161V12.2304H44.5986L48.1066 18.5918C48.2051 18.7691 48.4022 18.8872 48.619 18.8872ZM52.462 17.7056H48.9737L45.446 11.3048C45.3475 11.1275 45.1504 11.0094 44.9336 11.0094H43.9088C43.5738 11.0094 43.3176 11.2654 43.3176 11.6002V17.6859H40.1841V1.18168H46.8256C48.1263 1.18168 49.2496 1.39833 50.1365 1.85131C51.0233 2.28459 51.6539 2.87543 52.0875 3.62383C52.5211 4.37223 52.7379 5.2388 52.7379 6.16445C52.7379 7.20827 52.4423 8.13392 51.851 8.9611C51.2795 9.78828 50.3927 10.3594 49.2299 10.7139C49.0525 10.773 48.9146 10.8912 48.8555 11.0684C48.7963 11.226 48.7963 11.4229 48.8949 11.5805L52.462 17.7056ZM43.9088 9.15805H46.5694C47.5153 9.15805 48.2642 8.90202 48.7766 8.40965C49.289 7.89759 49.5452 7.20827 49.5452 6.3417C49.5452 5.51453 49.289 4.82521 48.7766 4.33284C48.2642 3.84047 47.535 3.58444 46.5891 3.58444H43.9088C43.5738 3.58444 43.3176 3.84047 43.3176 4.17528V8.56721C43.3176 8.90202 43.5738 9.15805 43.9088 9.15805ZM46.5891 7.97637H44.5V4.76613H46.5891C47.2197 4.76613 47.673 4.90399 47.9489 5.17971C48.2248 5.45544 48.3628 5.82964 48.3628 6.3417C48.3628 6.89316 48.2248 7.28705 47.9489 7.56278C47.673 7.8385 47.2197 7.97637 46.5891 7.97637ZM75.7762 18.8872H70.5537C70.2777 18.8872 70.0413 18.71 69.9821 18.4343L67.7157 9.11866L65.3705 18.4343C65.3114 18.6903 65.0749 18.8872 64.799 18.8872H59.5765C59.3005 18.8872 59.0641 18.71 59.0049 18.4343L54.5116 0.7484C54.4721 0.571148 54.5116 0.393897 54.6101 0.236339C54.7283 0.0984761 54.886 0 55.0831 0H59.6947C59.9706 0 60.2268 0.196949 60.2662 0.472675L62.2961 10.7336L64.8187 0.452979C64.8778 0.196948 65.1143 0 65.3902 0H70.1201C70.396 0 70.6325 0.196948 70.6916 0.452979L73.096 10.6745L75.1258 0.472675C75.185 0.196949 75.4215 0 75.6974 0H80.3287C80.5061 0 80.6834 0.0787813 80.8017 0.236339C80.9199 0.374202 80.9593 0.571148 80.9002 0.7484L76.3477 18.4343C76.2689 18.71 76.0324 18.8872 75.7762 18.8872ZM71.0266 17.7056H75.3229L79.6389 1.20138H76.2295L73.7463 13.6091C73.6872 13.8848 73.4507 14.0817 73.1748 14.0817C72.8989 14.0817 72.6624 13.8848 72.6033 13.6288L69.6865 1.20138H65.8829L62.8282 13.6288C62.7691 13.8848 62.5326 14.0817 62.2567 14.0817H62.237C61.9611 14.0817 61.7246 13.8848 61.6655 13.6091L59.2217 1.20138H55.8517L60.0494 17.7056H64.3457L67.1639 6.51896C67.223 6.26293 67.4595 6.06598 67.7355 6.06598C68.0114 6.06598 68.2478 6.26293 68.307 6.51896L71.0266 17.7056ZM71.2237 39.8227C71.3222 39.9409 71.4799 40 71.6376 40C71.7755 40 71.9332 39.9409 72.0317 39.8227L81.8462 30.0148C81.9644 29.9163 82.0235 29.7587 82.0235 29.6012C82.0235 29.4436 81.9644 29.3058 81.8462 29.1876L72.2682 19.616C72.0514 19.3993 71.6573 19.3993 71.4405 19.616L68.9376 22.1172C68.7011 22.3338 68.7011 22.708 68.9376 22.9444L75.6185 29.6012L68.7208 36.4943C68.4843 36.711 68.4843 37.0852 68.7208 37.3215L71.2237 39.8227ZM71.6376 38.582L69.9624 36.9079L76.8601 30.0148C76.9784 29.9163 77.0375 29.7587 77.0375 29.6012C77.0375 29.4436 76.9784 29.3058 76.8601 29.1876L70.1989 22.5308L71.8741 20.8567L80.6243 29.6012L71.6376 38.582ZM61.4881 39.8228C61.5866 39.9409 61.7443 40 61.902 40C62.0399 40 62.1976 39.9409 62.3158 39.8228L72.1303 30.0148C72.2485 29.9163 72.3076 29.7587 72.3076 29.6012C72.3076 29.4436 72.2485 29.3058 72.1303 29.1876L62.5523 19.616C62.3355 19.3993 61.9414 19.3993 61.7246 19.616L59.2217 22.1172C58.9852 22.3338 58.9852 22.708 59.2217 22.9444L65.8829 29.6012L58.9852 36.4943C58.7487 36.711 58.7487 37.0852 58.9852 37.3215L61.4881 39.8228ZM61.902 38.582L60.2268 36.9079L67.1245 30.0148C67.2428 29.9163 67.3019 29.7587 67.3019 29.6012C67.3019 29.4436 67.2428 29.3058 67.1245 29.1876L60.4633 22.5308L62.1385 20.8567L70.8887 29.6012L61.902 38.582ZM42.3716 34.9582C43.1993 36.3368 44.303 37.42 45.6825 38.1881C47.0621 38.9562 48.5796 39.3501 50.2547 39.3501C51.9299 39.3501 53.4474 38.9562 54.8269 38.1881C56.2064 37.42 57.2904 36.3368 58.0984 34.9582C58.9064 33.5795 59.3006 32.0236 59.3006 30.2905C59.3006 28.5574 58.8867 27.0015 58.0984 25.6229C57.3101 24.2442 56.2064 23.161 54.8269 22.3929C53.4474 21.6248 51.9102 21.2309 50.2547 21.2309C48.5993 21.2309 47.0621 21.6248 45.6825 22.3929C44.2833 23.161 43.1796 24.2442 42.3716 25.6229C41.5636 27.0015 41.1497 28.5574 41.1497 30.2905C41.1497 32.0236 41.5636 33.5795 42.3716 34.9582ZM54.9254 30.2708C54.9254 31.807 54.4919 33.0478 53.6444 33.9931C52.797 34.9385 51.654 35.4111 50.2547 35.4111C48.8358 35.4111 47.6927 34.9385 46.8453 34.0128C45.9978 33.0872 45.5643 31.8267 45.5643 30.2708C45.5643 28.6755 45.9978 27.4348 46.8453 26.5091C47.6927 25.5835 48.8358 25.1305 50.2547 25.1305C51.6737 25.1305 52.797 25.6032 53.6444 26.5288C54.4919 27.4545 54.9254 28.7149 54.9254 30.2708ZM16.4954 22.5899C17.8946 23.3383 18.9785 24.3624 19.7274 25.7016C20.496 27.0409 20.8705 28.5771 20.8705 30.3299C20.8705 32.063 20.496 33.5992 19.7274 34.9385C18.9588 36.2777 17.8749 37.3215 16.4757 38.0699C15.0764 38.8183 13.4407 39.1728 11.5882 39.1728H4.96636V21.487H11.5882C13.4604 21.487 15.0961 21.8415 16.4954 22.5899ZM15.1355 34.1113C16.0421 33.225 16.4954 31.9646 16.4954 30.3299C16.4954 28.6952 16.0421 27.4348 15.1355 26.5288C14.229 25.6229 12.9677 25.1699 11.3319 25.1699H9.28235V35.4505H11.3319C12.948 35.4308 14.229 34.9976 15.1355 34.1113ZM34.3112 36.0414H27.7091L26.6448 39.1728H22.1318L28.5368 21.487H33.5229L39.9279 39.1728H35.3557L34.3112 36.0414ZM33.2075 32.713L31.02 26.2334L28.8521 32.713H33.2075Z" fill="#1A1A1A"/>
</g>
</svg>
