<svg width="16" height="16" viewBox="0 0 16 16" fill="none" xmlns="http://www.w3.org/2000/svg">
<g id="Group 2551">
<g id="Union">
<path d="M14 4.5C14 4.22386 13.7761 4 13.5 4H2.5C2.22386 4 2 4.22386 2 4.5V4.75C2 5.02614 2.22386 5.25 2.5 5.25H13.5C13.7761 5.25 14 5.02614 14 4.75V4.5Z" fill="#1A1A1A"/>
<path d="M2 7.875C2 7.59886 2.22386 7.375 2.5 7.375H13.5C13.7761 7.375 14 7.59886 14 7.875V8.125C14 8.40114 13.7761 8.625 13.5 8.625H2.5C2.22386 8.625 2 8.40114 2 8.125V7.875Z" fill="#1A1A1A"/>
<path d="M2 11.25C2 10.9739 2.22386 10.75 2.5 10.75H13.5C13.7761 10.75 14 10.9739 14 11.25V11.5C14 11.7761 13.7761 12 13.5 12H2.5C2.22386 12 2 11.7761 2 11.5V11.25Z" fill="#1A1A1A"/>
</g>
</g>
</svg>
