<svg width="81" height="80" viewBox="0 0 81 80" fill="none" xmlns="http://www.w3.org/2000/svg">
<path d="M9.5 14.7143C9.5 11.5584 12.0584 9 15.2143 9H24.2076C24.8736 9 25.5345 9.11643 26.1604 9.34404L33.6968 12.0845C34.3227 12.3121 34.9836 12.4286 35.6496 12.4286H66.6429C69.7988 12.4286 72.3572 14.9869 72.3572 18.1429V66.1429C72.3572 69.2988 69.7988 71.8572 66.6429 71.8572H15.2143C12.0584 71.8572 9.5 69.2988 9.5 66.1429V14.7143Z" fill="#FFF5EA"/>
<path d="M1.37761 33.1959C0.91322 29.7666 3.57957 26.7148 7.04021 26.7148H73.9597C77.4203 26.7148 80.0867 29.7666 79.6223 33.1959L74.9795 67.4817C74.5957 70.3154 72.1764 72.4291 69.3168 72.4291H11.6831C8.8235 72.4291 6.4042 70.3154 6.02047 67.4817L1.37761 33.1959Z" fill="#FDE2BF"/>
<path d="M46.2142 35.0004C46.2142 34.6059 46.534 34.2861 46.9285 34.2861H68.3571C68.7516 34.2861 69.0714 34.6059 69.0714 35.0004V37.1433C69.0714 37.5378 68.7516 37.8576 68.3571 37.8576H46.9285C46.534 37.8576 46.2142 37.5378 46.2142 37.1433V35.0004Z" fill="white"/>
<path d="M57.6428 42.8576C57.6428 42.4631 57.9626 42.1433 58.3571 42.1433H68.3571C68.7516 42.1433 69.0714 42.4631 69.0714 42.8576V45.0004C69.0714 45.3949 68.7516 45.7147 68.3571 45.7147H58.3571C57.9626 45.7147 57.6428 45.3949 57.6428 45.0004V42.8576Z" fill="white"/>
<path d="M22.9999 59.2861C22.0137 59.2861 21.2142 60.0856 21.2142 61.0718C21.2142 62.0581 22.0137 62.8576 22.9999 62.8576C23.9862 62.8576 24.7856 62.0581 24.7856 61.0718C24.7856 60.0856 23.9862 59.2861 22.9999 59.2861Z" fill="white"/>
<path d="M27.6428 61.0718C27.6428 60.0856 28.4423 59.2861 29.4285 59.2861C30.4147 59.2861 31.2142 60.0856 31.2142 61.0718C31.2142 62.0581 30.4147 62.8576 29.4285 62.8576C28.4423 62.8576 27.6428 62.0581 27.6428 61.0718Z" fill="white"/>
<path d="M16.5714 59.2861C15.5851 59.2861 14.7856 60.0856 14.7856 61.0718C14.7856 62.0581 15.5851 62.8576 16.5714 62.8576C17.5576 62.8576 18.3571 62.0581 18.3571 61.0718C18.3571 60.0856 17.5576 59.2861 16.5714 59.2861Z" fill="white"/>
</svg>
