<svg width="14" height="14" viewBox="0 0 14 14" fill="none" xmlns="http://www.w3.org/2000/svg">
<g id="Group 48097355">
<g id="Union">
<path d="M4.8125 4.1125C4.8125 4.01585 4.89085 3.9375 4.9875 3.9375H9.0125C9.10915 3.9375 9.1875 4.01585 9.1875 4.1125V4.85625C9.1875 4.9529 9.10915 5.03125 9.0125 5.03125H4.9875C4.89085 5.03125 4.8125 4.9529 4.8125 4.85625V4.1125Z" fill="#1A1A1A"/>
<path d="M4.9875 6.125C4.89085 6.125 4.8125 6.20335 4.8125 6.3V7.04375C4.8125 7.1404 4.89085 7.21875 4.9875 7.21875H6.3875C6.48415 7.21875 6.5625 7.1404 6.5625 7.04375V6.3C6.5625 6.20335 6.48415 6.125 6.3875 6.125H4.9875Z" fill="#1A1A1A"/>
<path fill-rule="evenodd" clip-rule="evenodd" d="M2.73438 1.20312C2.37194 1.20312 2.07812 1.49694 2.07812 1.85938V12.1406C2.07812 12.5031 2.37194 12.7969 2.73438 12.7969H8.7047C8.87874 12.7969 9.04566 12.7277 9.16873 12.6047L11.7297 10.0437C11.8527 9.92066 11.9219 9.75374 11.9219 9.57969V1.85938C11.9219 1.49694 11.6281 1.20312 11.2656 1.20312H2.73438ZM3.17188 11.7031V2.29688H10.8281V9.07812H8.85938C8.49694 9.07812 8.20312 9.37194 8.20312 9.73438V11.7031H3.17188ZM9.29688 10.9297L10.0547 10.1719H9.29688V10.9297Z" fill="#1A1A1A"/>
</g>
</g>
</svg>
