<svg width="14" height="14" viewBox="0 0 14 14" fill="none" xmlns="http://www.w3.org/2000/svg">
<path fill-rule="evenodd" clip-rule="evenodd" d="M1.75 4.85938C1.75 5.13552 1.97386 5.35938 2.25 5.35938H7.52465C7.75429 6.05805 8.41198 6.5625 9.1875 6.5625C9.96302 6.5625 10.6207 6.05805 10.8504 5.35938H11.75C12.0261 5.35938 12.25 5.13552 12.25 4.85938V4.76562C12.25 4.48948 12.0261 4.26562 11.75 4.26562H10.8504C10.6207 3.56695 9.96302 3.0625 9.1875 3.0625C8.41198 3.0625 7.75429 3.56695 7.52465 4.26562H2.25C1.97386 4.26562 1.75 4.48948 1.75 4.76562V4.85938ZM9.1875 4.15625C8.82506 4.15625 8.53125 4.45006 8.53125 4.8125C8.53125 5.17494 8.82506 5.46875 9.1875 5.46875C9.54994 5.46875 9.84375 5.17494 9.84375 4.8125C9.84375 4.45006 9.54994 4.15625 9.1875 4.15625Z" fill="#1A1A1A"/>
<path fill-rule="evenodd" clip-rule="evenodd" d="M6.47535 9.73438C6.24571 10.433 5.58802 10.9375 4.8125 10.9375C4.03698 10.9375 3.37929 10.433 3.14965 9.73438H2.25C1.97386 9.73438 1.75 9.51052 1.75 9.23438V9.14062C1.75 8.86448 1.97386 8.64062 2.25 8.64062H3.14965C3.37929 7.94195 4.03698 7.4375 4.8125 7.4375C5.58802 7.4375 6.24571 7.94195 6.47535 8.64062H11.75C12.0261 8.64062 12.25 8.86448 12.25 9.14062V9.23438C12.25 9.51052 12.0261 9.73438 11.75 9.73438H6.47535ZM4.15625 9.1875C4.15625 8.82506 4.45006 8.53125 4.8125 8.53125C5.17494 8.53125 5.46875 8.82506 5.46875 9.1875C5.46875 9.54994 5.17494 9.84375 4.8125 9.84375C4.45006 9.84375 4.15625 9.54994 4.15625 9.1875Z" fill="#1A1A1A"/>
</svg>
