<svg width="56" height="56" viewBox="0 0 56 56" fill="none" xmlns="http://www.w3.org/2000/svg">
<g id="Group 2568">
<path id="Subtract" d="M52.5 28C52.5 41.531 41.531 52.5 28 52.5C14.469 52.5 3.5 41.531 3.5 28C3.5 14.469 14.469 3.5 28 3.5C41.531 3.5 52.5 14.469 52.5 28ZM25.1042 36.8646C25.5682 36.8776 26.0365 36.7069 26.3907 36.3527L40.745 21.9985C41.0183 21.7251 41.0183 21.2819 40.745 21.0085L38.6413 18.9049C38.368 18.6315 37.9247 18.6315 37.6514 18.9049L25.1514 31.4048L18.3488 24.6022C18.0754 24.3288 17.6322 24.3288 17.3589 24.6022L15.2552 26.7058C14.9818 26.9792 14.9818 27.4224 15.2552 27.6958L23.9121 36.3526C24.2422 36.6828 24.6715 36.8535 25.1042 36.8646Z" fill="#05C4A2"/>
</g>
</svg>
