<svg width="16" height="16" viewBox="0 0 16 16" fill="none" xmlns="http://www.w3.org/2000/svg">
<g id="Group 2570">
<g id="Union">
<path fill-rule="evenodd" clip-rule="evenodd" d="M2 5.625C2 5.90114 2.22386 6.125 2.5 6.125H8.59959C8.86204 6.92348 9.6137 7.5 10.5 7.5C11.3863 7.5 12.138 6.92348 12.4004 6.125H13.5C13.7761 6.125 14 5.90114 14 5.625V5.375C14 5.09886 13.7761 4.875 13.5 4.875H12.4004C12.138 4.07652 11.3863 3.5 10.5 3.5C9.6137 3.5 8.86204 4.07652 8.59959 4.875H2.5C2.22386 4.875 2 5.09886 2 5.375V5.625ZM10.5 4.75C10.0858 4.75 9.75 5.08579 9.75 5.5C9.75 5.91421 10.0858 6.25 10.5 6.25C10.9142 6.25 11.25 5.91421 11.25 5.5C11.25 5.08579 10.9142 4.75 10.5 4.75Z" fill="#1A1A1A"/>
<path fill-rule="evenodd" clip-rule="evenodd" d="M7.40041 11.125C7.13796 11.9235 6.3863 12.5 5.5 12.5C4.6137 12.5 3.86204 11.9235 3.59959 11.125H2.5C2.22386 11.125 2 10.9011 2 10.625V10.375C2 10.0989 2.22386 9.875 2.5 9.875H3.59959C3.86204 9.07652 4.6137 8.5 5.5 8.5C6.3863 8.5 7.13796 9.07652 7.40041 9.875H13.5C13.7761 9.875 14 10.0989 14 10.375V10.625C14 10.9011 13.7761 11.125 13.5 11.125H7.40041ZM4.75 10.5C4.75 10.0858 5.08579 9.75 5.5 9.75C5.91421 9.75 6.25 10.0858 6.25 10.5C6.25 10.9142 5.91421 11.25 5.5 11.25C5.08579 11.25 4.75 10.9142 4.75 10.5Z" fill="#1A1A1A"/>
</g>
</g>
</svg>
