<svg width="157" height="126" viewBox="0 0 157 126" fill="none" xmlns="http://www.w3.org/2000/svg">
<g clip-path="url(#clip0_8375_60797)">
<path d="M0.307377 111.078C0.928522 106.083 4.02398 101.162 8.78743 99.5362C6.90886 104.677 6.90926 110.317 8.78858 115.458C9.52053 117.438 10.5408 119.563 9.8523 121.559C9.42392 122.801 8.37595 123.75 7.20453 124.344C6.03304 124.938 4.73293 125.222 3.44908 125.499L3.19642 125.708C1.15834 121.106 -0.313767 116.072 0.307377 111.078Z" fill="#EDEDED"/>
<path d="M8.83473 99.6306C6.06072 102.739 4.33659 106.642 3.90724 110.786C3.79897 111.676 3.83174 112.578 4.00433 113.459C4.20017 114.311 4.62059 115.095 5.22192 115.729C5.77071 116.332 6.4019 116.885 6.79456 117.611C6.99004 117.986 7.10414 118.397 7.12938 118.819C7.15462 119.241 7.09043 119.663 6.94101 120.058C6.59433 121.053 5.91103 121.863 5.21528 122.633C4.44278 123.487 3.62687 124.362 3.2985 125.494C3.25871 125.631 3.04812 125.562 3.08785 125.425C3.65916 123.454 5.57182 122.335 6.48396 120.561C6.90959 119.732 7.08824 118.771 6.68922 117.897C6.3403 117.133 5.68991 116.562 5.12896 115.956C4.53327 115.345 4.09613 114.598 3.8557 113.78C3.63885 112.911 3.57139 112.012 3.65622 111.121C3.81518 109.111 4.28911 107.139 5.06066 105.277C5.92943 103.147 7.15622 101.181 8.68795 99.4642C8.78279 99.358 8.92896 99.5251 8.83473 99.6306Z" fill="white"/>
<path d="M3.96696 109.443C3.28149 109.277 2.6775 108.872 2.26284 108.302C1.84818 107.731 1.64987 107.032 1.70332 106.328C1.71462 106.186 1.93624 106.197 1.92493 106.339C1.87395 106.994 2.05875 107.646 2.44596 108.176C2.83317 108.707 3.39729 109.082 4.03651 109.233C4.17538 109.266 4.10504 109.476 3.96696 109.443Z" fill="white"/>
<path d="M4.90337 115.46C6.14141 114.721 7.05535 113.542 7.46294 112.159C7.50321 112.022 7.71381 112.092 7.67358 112.229C7.24675 113.667 6.29316 114.892 5.00314 115.658C4.88013 115.731 4.78103 115.533 4.90337 115.46Z" fill="white"/>
<path d="M6.1352 103.357C6.38701 103.477 6.66459 103.532 6.94302 103.518C7.22146 103.504 7.49202 103.421 7.73041 103.276C7.85243 103.202 7.95141 103.4 7.83018 103.474C7.56605 103.633 7.26713 103.724 6.95954 103.74C6.65195 103.757 6.34505 103.697 6.06565 103.568C6.03829 103.558 6.01577 103.538 6.00267 103.512C5.98956 103.486 5.98686 103.455 5.9951 103.428C6.00445 103.4 6.02441 103.377 6.05065 103.363C6.07688 103.35 6.10727 103.348 6.1352 103.357Z" fill="white"/>
<path d="M23.3071 108.457C23.2323 108.506 23.1574 108.555 23.0824 108.605C22.0792 109.265 21.1313 110.005 20.248 110.818C20.1787 110.88 20.1094 110.944 20.042 111.007C17.9347 112.989 16.2137 115.345 14.9665 117.955C14.4711 118.994 14.0555 120.069 13.7233 121.172C13.2645 122.694 12.8883 124.381 11.9802 125.626C11.887 125.757 11.7857 125.882 11.6769 126H3.47099C3.45234 125.991 3.4336 125.983 3.41486 125.974L3.08722 125.989C3.10038 125.931 3.11528 125.871 3.12845 125.813C3.13594 125.779 3.14527 125.745 3.15277 125.712C3.15834 125.689 3.16401 125.667 3.16776 125.646C3.16958 125.639 3.1715 125.631 3.17333 125.626C3.17708 125.605 3.18275 125.586 3.1865 125.568C3.26887 125.232 3.35373 124.897 3.44109 124.562C3.44109 124.56 3.44109 124.56 3.44292 124.558C4.11511 122.007 5.00624 119.488 6.25124 117.186C6.28872 117.116 6.32611 117.045 6.36734 116.976C6.93429 115.941 7.58488 114.954 8.3126 114.025C8.71271 113.518 9.13825 113.031 9.58759 112.567C10.7509 111.369 12.0954 110.362 13.5716 109.583C16.5148 108.029 19.9222 107.433 23.0675 108.382C23.148 108.407 23.2267 108.431 23.3071 108.457Z" fill="#EDEDED"/>
<path d="M23.2887 108.562C19.2025 109.373 15.4758 111.452 12.6381 114.502C12.0156 115.147 11.4987 115.887 11.1065 116.694C10.7499 117.492 10.6136 118.371 10.7116 119.24C10.7868 120.052 10.9577 120.874 10.8342 121.69C10.7648 122.106 10.608 122.504 10.3743 122.856C10.1405 123.208 9.835 123.506 9.47778 123.732C8.6023 124.317 7.56876 124.553 6.55003 124.748C5.41893 124.965 4.24064 125.172 3.29662 125.879C3.18224 125.965 3.0561 125.782 3.17031 125.697C4.81273 124.467 7.01371 124.725 8.81046 123.858C9.64886 123.453 10.3703 122.793 10.578 121.854C10.7596 121.034 10.5841 120.187 10.5009 119.365C10.3928 118.519 10.4936 117.659 10.7943 116.861C11.1441 116.037 11.6316 115.279 12.2359 114.618C13.5727 113.109 15.1384 111.82 16.8757 110.798C18.852 109.62 21.0151 108.789 23.2717 108.34C23.4113 108.313 23.4275 108.534 23.2887 108.562Z" fill="white"/>
<path d="M13.494 113.466C13.0469 112.92 12.8083 112.233 12.8208 111.528C12.8333 110.823 13.096 110.145 13.5622 109.616C13.6569 109.509 13.8273 109.651 13.7325 109.758C13.2975 110.25 13.0528 110.882 13.0425 111.538C13.0322 112.195 13.257 112.834 13.6764 113.339C13.7674 113.449 13.5845 113.575 13.494 113.466Z" fill="white"/>
<path d="M10.6193 118.834C12.0528 118.989 13.4922 118.598 14.6504 117.739C14.7651 117.654 14.8912 117.836 14.7767 117.921C13.5698 118.813 12.0711 119.217 10.5796 119.052C10.4375 119.036 10.4779 118.818 10.6193 118.834Z" fill="white"/>
<path d="M18.8897 109.912C19.0188 110.159 19.2071 110.37 19.438 110.526C19.6688 110.683 19.9348 110.779 20.2122 110.807C20.3545 110.821 20.3139 111.039 20.1726 111.026C19.8663 110.993 19.5726 110.886 19.3172 110.714C19.0618 110.542 18.8524 110.31 18.7074 110.038C18.6916 110.013 18.6857 109.984 18.6909 109.955C18.6961 109.926 18.712 109.901 18.7354 109.884C18.7596 109.867 18.7894 109.861 18.8183 109.866C18.8472 109.871 18.8729 109.887 18.8897 109.912Z" fill="white"/>
<path d="M139.405 11.8356C132.627 4.63971 123.297 0.390057 113.42 0V37.8208L139.405 11.8356Z" fill="#1A1A1A"/>
<path d="M139.405 16.5448L113.42 42.5299H149.735C149.747 32.8647 146.05 23.5633 139.405 16.5448Z" fill="#EDEDED"/>
<path d="M149.773 45.2477C149.775 47.605 149.557 49.9573 149.122 52.2741C149.088 52.4576 149.053 52.6392 149.015 52.8208C148.195 56.8622 146.715 60.7409 144.634 64.3012C144.524 64.4922 144.409 64.6831 144.295 64.8703V64.8722C142.244 68.2466 139.68 71.2805 136.694 73.8645C136.546 73.9936 136.398 74.121 136.248 74.2464C129.832 79.6448 121.798 82.7492 113.419 83.0683V45.2477H149.773Z" fill="#EDEDED"/>
<path d="M109.746 83.1013C110.248 83.1013 110.748 83.0885 111.246 83.069V45.2468L83.7402 72.7526C90.7609 79.4094 100.071 83.1142 109.746 83.1013Z" fill="#EDEDED"/>
<path d="M109.797 4.67544C88.8906 4.67544 71.9426 21.6235 71.9426 42.5299H111.337V4.70918C110.826 4.68874 110.313 4.67544 109.797 4.67544Z" fill="#FA9D2B"/>
<path d="M100.766 45.2477L92.8075 53.2064L92.5472 53.4667L92.5416 53.4723L85.6013 60.4107L85.3374 60.6747L77.8391 68.1729L77.5751 68.4369V68.4388L73.2597 72.7524C69.5125 69.2188 66.5282 64.9557 64.4904 60.2255C62.4526 55.4953 61.4045 50.3981 61.4104 45.2477H100.766Z" fill="#FA9D2B"/>
<path d="M39.0209 79.6995C39.3105 79.5238 39.558 79.2867 39.7461 79.005C39.9342 78.7233 40.0582 78.4038 40.1094 78.0689C40.1606 77.7341 40.1378 77.3921 40.0426 77.067C39.9473 76.742 39.782 76.4417 39.5581 76.1875L39.8705 59.1622L36.1393 59.4748L36.148 76.0728C35.7458 76.4772 35.5059 77.015 35.4738 77.5844C35.4417 78.1538 35.6195 78.7152 35.9736 79.1622C36.3277 79.6092 36.8335 79.9108 37.3952 80.0099C37.9568 80.1089 38.5352 79.9985 39.0209 79.6995Z" fill="#FFB6B6"/>
<path d="M40.4588 63.3298L35.5789 62.8645C35.4401 62.8512 35.3057 62.8082 35.185 62.7384C35.0643 62.6685 34.96 62.5735 34.8794 62.4597C34.7987 62.3459 34.7435 62.2161 34.7175 62.0791C34.6915 61.9421 34.6954 61.801 34.7288 61.6656L35.9006 56.9211C35.9724 56.2111 36.3228 55.5586 36.8749 55.1065C37.4271 54.6545 38.136 54.4398 38.8462 54.5097C39.5563 54.5795 40.2098 54.9281 40.6634 55.479C41.117 56.0299 41.3336 56.7382 41.2657 57.4485L41.5201 62.3132C41.5274 62.4525 41.5045 62.5917 41.4531 62.7213C41.4017 62.851 41.3229 62.968 41.2222 63.0645C41.1215 63.161 41.0012 63.2346 40.8694 63.2804C40.7377 63.3262 40.5976 63.343 40.4588 63.3298Z" fill="#E4E4E4"/>
<path d="M32.3426 123.995H34.236L35.1367 116.692L32.3422 116.692L32.3426 123.995Z" fill="#FFB6B6"/>
<path d="M31.8596 123.377L35.5884 123.377C36.2186 123.377 36.8232 123.628 37.2688 124.073C37.7145 124.519 37.9648 125.123 37.9649 125.753V125.831L31.8597 125.831L31.8596 123.377Z" fill="#2F2E41"/>
<path d="M49.7944 123.995H51.688L52.5887 116.692L49.7943 116.692L49.7944 123.995Z" fill="#FFB6B6"/>
<path d="M49.3115 123.377L53.0404 123.377C53.6706 123.377 54.2752 123.628 54.7208 124.073C55.1664 124.519 55.4168 125.123 55.4169 125.753V125.831L49.3116 125.831L49.3115 123.377Z" fill="#2F2E41"/>
<path d="M47.5085 65.323L48.7439 73.1996L37.0063 73.3541L38.5507 65.7864L47.5085 65.323Z" fill="#FFB6B6"/>
<path d="M48.4032 71.2763C52.1277 77.7639 52.4456 99.7619 52.605 122.482H49.4389L41.8712 89.3388L34.9214 121.617H31.8325L33.9947 85.3233C33.9947 85.3233 33.3571 78.0387 36.6202 73.7401L37.4145 71.4454L48.4032 71.2763Z" fill="#2F2E41"/>
<path d="M38.9534 69.6732C38.8849 69.6731 38.8166 69.6664 38.7493 69.653C38.5233 69.6078 38.3183 69.4898 38.1657 69.3172C38.013 69.1445 37.9211 68.9266 37.9039 68.6968C37.7878 67.1072 37.2125 64.3401 36.194 60.4724C35.8502 59.1579 35.9264 57.7688 36.4118 56.4997C36.8972 55.2307 37.7676 54.1453 38.901 53.3959C40.0343 52.6464 41.3737 52.2704 42.7316 52.3205C44.0894 52.3706 45.3974 52.8444 46.4724 53.6754C47.1607 54.2026 47.7352 54.8637 48.1612 55.6188C48.5873 56.374 48.8561 57.2075 48.9514 58.0693C49.4576 62.527 48.5033 67.0026 48.0696 68.7199C48.0126 68.9441 47.8837 69.1434 47.7026 69.2873C47.5215 69.4312 47.2982 69.5118 47.067 69.5167L38.9759 69.6729C38.9684 69.6731 38.9609 69.6732 38.9534 69.6732Z" fill="#E4E4E4"/>
<path d="M61.5583 55.3732C61.5097 55.4822 61.4698 55.5949 61.4389 55.7102L51.3112 59.1516L49.3542 57.442L46.3881 60.0582L49.5584 63.4214C49.8145 63.6931 50.1519 63.8744 50.5198 63.9381C50.8877 64.0017 51.2664 63.9443 51.5989 63.7745L62.4361 58.2388C62.828 58.4792 63.2838 58.5946 63.7429 58.5696C64.202 58.5447 64.6426 58.3805 65.0061 58.099C65.3696 57.8175 65.6388 57.432 65.7779 56.9938C65.917 56.5556 65.9193 56.0854 65.7847 55.6458C65.65 55.2062 65.3847 54.818 65.024 54.5329C64.6634 54.2478 64.2245 54.0792 63.7656 54.0496C63.3068 54.02 62.8499 54.1308 62.4556 54.3672C62.0613 54.6037 61.7483 54.9545 61.5583 55.3732Z" fill="#FFB6B6"/>
<path d="M50.9581 59.3397L47.2662 62.5644C47.1611 62.6561 47.0375 62.7242 46.9038 62.7638C46.7701 62.8035 46.6294 62.8139 46.4913 62.7943C46.3532 62.7747 46.221 62.7256 46.1036 62.6503C45.9862 62.575 45.8864 62.4752 45.8111 62.3579L43.1703 58.2457C42.7039 57.7056 42.4707 57.0026 42.5218 56.2908C42.573 55.579 42.9043 54.9165 43.4432 54.4487C43.982 53.9808 44.6844 53.7457 45.3963 53.7949C46.1083 53.8442 46.7716 54.1737 47.2409 54.7113L50.9493 57.8701C51.0554 57.9605 51.1408 58.0728 51.1996 58.1993C51.2585 58.3257 51.2894 58.4634 51.2902 58.6029C51.2911 58.7423 51.2618 58.8803 51.2045 59.0075C51.1472 59.1347 51.0632 59.248 50.9581 59.3397Z" fill="#E4E4E4"/>
<path d="M45.9991 48.7347C47.3138 46.3296 46.4299 43.3142 44.0249 41.9995C41.6199 40.6848 38.6044 41.5687 37.2897 43.9737C35.975 46.3787 36.8589 49.3942 39.2639 50.7089C41.669 52.0236 44.6844 51.1397 45.9991 48.7347Z" fill="#FFB6B6"/>
<path d="M43.0106 39.485H42.0042C41.5212 39.3338 41.0179 39.2572 40.5118 39.2578C40.4284 39.2578 40.3455 39.2598 40.263 39.2639C39.3221 39.3231 38.4225 39.6714 37.6869 40.2611C36.9513 40.8508 36.4158 41.6532 36.1533 42.5587C35.028 46.3148 35.5141 50.4708 35.5141 50.4708C37.1565 51.2137 39.6668 51.7634 43.3741 51.3114L43.9193 49.026L43.8738 51.2432C44.3964 51.1705 44.9416 51.0766 45.5095 50.9615V46.0729H47.7812C47.7812 42.4336 46.6499 39.485 43.0106 39.485Z" fill="#2F2E41"/>
<path d="M145.851 92.8618C147.505 92.8618 148.847 91.5207 148.847 89.8663C148.847 88.2119 147.505 86.8707 145.851 86.8707C144.197 86.8707 142.855 88.2119 142.855 89.8663C142.855 91.5207 144.197 92.8618 145.851 92.8618Z" fill="#F6F6F6"/>
<path d="M73.0219 8.42496C74.6763 8.42496 76.0175 7.08381 76.0175 5.42942C76.0175 3.77503 74.6763 2.43388 73.0219 2.43388C71.3675 2.43388 70.0264 3.77503 70.0264 5.42942C70.0264 7.08381 71.3675 8.42496 73.0219 8.42496Z" fill="#F6F6F6"/>
<path d="M71.8087 125.813C71.8088 125.837 71.804 125.862 71.7946 125.885C71.7852 125.907 71.7715 125.928 71.7541 125.945C71.7367 125.963 71.716 125.977 71.6932 125.986C71.6705 125.995 71.6461 126 71.6215 126H0.290127C0.240472 126 0.192852 125.98 0.157741 125.945C0.12263 125.91 0.102905 125.862 0.102905 125.813C0.102905 125.763 0.12263 125.715 0.157741 125.68C0.192852 125.645 0.240472 125.626 0.290127 125.626H71.6215C71.6461 125.625 71.6705 125.63 71.6932 125.64C71.716 125.649 71.7367 125.663 71.7541 125.68C71.7715 125.698 71.7852 125.718 71.7946 125.741C71.804 125.764 71.8088 125.788 71.8087 125.813Z" fill="#CACACA"/>
<path d="M77.5752 68.4384C71.3641 62.2872 67.7348 53.9974 67.428 45.2611L68.1765 45.2343C68.4766 53.7805 72.0271 61.8899 78.1031 67.9073L77.5752 68.4384Z" fill="#1A1A1A"/>
<path d="M85.6091 60.4183L85.0662 60.9313C80.9286 56.5622 78.0082 51.185 76.5963 45.3357L76.9595 45.2477H77.3451C78.7338 50.9333 81.5794 56.1592 85.6016 60.4108L85.6091 60.4183Z" fill="#1A1A1A"/>
<path d="M92.828 53.2327L92.5472 53.4667L92.5415 53.4723L92.2533 53.7119C90.1526 51.1993 88.4214 48.3995 87.1121 45.3974L87.4547 45.2477H87.8648C89.1329 48.1183 90.7966 50.7972 92.8075 53.2064C92.8137 53.2156 92.8206 53.2244 92.828 53.2327Z" fill="#1A1A1A"/>
</g>
<defs>
<clipPath id="clip0_8375_60797">
<rect width="156.794" height="126" fill="white" transform="translate(0.102905)"/>
</clipPath>
</defs>
</svg>
