<svg width="57" height="56" viewBox="0 0 57 56" fill="none" xmlns="http://www.w3.org/2000/svg">
<g id="Group 2568">
<path id="Subtract" d="M53 28C53 41.531 42.031 52.5 28.5 52.5C14.969 52.5 4 41.531 4 28C4 14.469 14.969 3.5 28.5 3.5C42.031 3.5 53 14.469 53 28ZM29.9875 31.5C30.3741 31.5 30.6875 31.1866 30.6875 30.8V16.45C30.6875 16.0634 30.3741 15.75 29.9875 15.75H27.0125C26.6259 15.75 26.3125 16.0634 26.3125 16.45V30.8C26.3125 31.1866 26.6259 31.5 27.0125 31.5H29.9875ZM28.4999 40.25C30.2396 40.25 31.6499 38.8397 31.6499 37.1C31.6499 35.3603 30.2396 33.95 28.4999 33.95C26.7602 33.95 25.3499 35.3603 25.3499 37.1C25.3499 38.8397 26.7602 40.25 28.4999 40.25Z" fill="#F55D6E"/>
</g>
</svg>
