<svg width="64" height="64" viewBox="0 0 64 64" fill="none" xmlns="http://www.w3.org/2000/svg">
<g id="warning-filled">
<g id="Subtract">
<path d="M28.5728 7.93847C30.1272 5.35384 33.8741 5.35384 35.4285 7.93847L60.8312 50.1772C62.4345 52.8433 60.5143 56.2388 57.4033 56.2388H6.59799C3.48696 56.2388 1.56678 52.8433 3.17015 50.1772L28.5728 7.93847ZM33.7 40.5398C34.1418 40.5398 34.5 40.1816 34.5 39.7398V23.3398C34.5 22.898 34.1418 22.5398 33.7 22.5398H30.3C29.8582 22.5398 29.5 22.898 29.5 23.3398V39.7398C29.5 40.1816 29.8582 40.5398 30.3 40.5398H33.7ZM32.0004 50.5398C33.9886 50.5398 35.6004 48.9281 35.6004 46.9398C35.6004 44.9516 33.9886 43.3398 32.0004 43.3398C30.0122 43.3398 28.4004 44.9516 28.4004 46.9398C28.4004 48.9281 30.0122 50.5398 32.0004 50.5398Z" fill="#FA9D2B"/>
</g>
</g>
</svg>
