<svg width="12" height="12" viewBox="0 0 12 12" fill="none" xmlns="http://www.w3.org/2000/svg">
<g id="Group 2568">
<path id="Subtract" d="M11.25 6C11.25 8.89949 8.8995 11.25 6 11.25C3.10051 11.25 0.75 8.89949 0.75 6C0.75 3.1005 3.10051 0.75 6 0.75C8.8995 0.75 11.25 3.1005 11.25 6ZM6.31875 6.75C6.40159 6.75 6.46875 6.68284 6.46875 6.6V3.525C6.46875 3.44216 6.40159 3.375 6.31875 3.375H5.68125C5.59841 3.375 5.53125 3.44216 5.53125 3.525V6.6C5.53125 6.68284 5.59841 6.75 5.68125 6.75H6.31875ZM5.99998 8.62501C6.37277 8.62501 6.67498 8.3228 6.67498 7.95001C6.67498 7.57722 6.37277 7.27501 5.99998 7.27501C5.62719 7.27501 5.32498 7.57722 5.32498 7.95001C5.32498 8.3228 5.62719 8.62501 5.99998 8.62501Z" fill="#B8B8B8"/>
</g>
</svg>