<svg width="24" height="24" viewBox="0 0 24 24" fill="none" xmlns="http://www.w3.org/2000/svg">
<g id="Icon_Station">
<path id="Subtract" fill-rule="evenodd" clip-rule="evenodd" d="M8.52041 11.194H15.4786C15.3954 8.83493 14.9509 6.74584 14.2987 5.224C13.9353 4.37603 13.5232 3.74131 13.1068 3.33029C12.6938 2.92269 12.3205 2.77431 11.9995 2.77431C11.6785 2.77431 11.3053 2.92269 10.8922 3.33029C10.4758 3.74131 10.0637 4.37603 9.70033 5.224C9.04812 6.74584 8.60364 8.83493 8.52041 11.194ZM15.4786 12.8062C15.3954 15.1653 14.9509 17.2543 14.2987 18.7762C13.9353 19.6241 13.5232 20.2589 13.1068 20.6699C12.6938 21.0775 12.3205 21.2259 11.9995 21.2259C11.6785 21.2259 11.3053 21.0775 10.8922 20.6699C10.4758 20.2589 10.0637 19.6241 9.70033 18.7762C9.04812 17.2543 8.60365 15.1653 8.52041 12.8062H15.4786ZM17.0918 12.8062H21.9997C21.6504 17.1988 18.4717 20.7945 14.2865 21.7702C14.878 21.17 15.3767 20.3538 15.7806 19.4113C16.5322 17.6576 17.0082 15.3444 17.0918 12.8062ZM21.9997 11.194H17.0918C17.0082 8.65582 16.5322 6.34263 15.7806 4.5889C15.3767 3.6464 14.878 2.83016 14.2865 2.22998C18.4717 3.20574 21.6504 6.80137 21.9997 11.194ZM6.90721 11.194H1.99968C2.34893 6.80153 5.52741 3.206 9.71244 2.23008C9.12092 2.83026 8.62232 3.64646 8.21842 4.5889C7.46682 6.34263 6.99084 8.65582 6.90721 11.194ZM6.90721 12.8062H1.99968C2.34894 17.1987 5.52742 20.7942 9.71245 21.7701C9.12093 21.1699 8.62233 20.3537 8.21842 19.4113C7.46683 17.6576 6.99085 15.3444 6.90721 12.8062Z" fill="white"/>
</g>
</svg>
