<svg width="64" height="64" viewBox="0 0 64 64" fill="none" xmlns="http://www.w3.org/2000/svg">
<circle cx="32" cy="32" r="31" fill="white" stroke="#F0F0F0" stroke-width="2"/>
<path fill-rule="evenodd" clip-rule="evenodd" d="M33.3206 20.6684C35.4939 20.6684 37.2556 18.9067 37.2556 16.7334C37.2556 14.5602 35.4939 12.7985 33.3206 12.7985C31.1474 12.7985 29.3856 14.5602 29.3856 16.7334C29.3856 18.9067 31.1474 20.6684 33.3206 20.6684ZM51.095 31.9981C51.095 36.4195 47.5108 40.0038 43.0894 40.0038C38.668 40.0038 35.0837 36.4195 35.0837 31.9981C35.0837 27.5767 38.668 23.9925 43.0894 23.9925C47.5108 23.9925 51.095 27.5767 51.095 31.9981ZM37.2558 47.2621C37.2558 49.4353 35.494 51.1971 33.3208 51.1971C31.1476 51.1971 29.3858 49.4353 29.3858 47.2621C29.3858 45.0889 31.1476 43.3271 33.3208 43.3271C35.494 43.3271 37.2558 45.0889 37.2558 47.2621ZM13.1704 20.9402C12.017 23.9932 13.6453 27.4533 16.6983 28.6066C18.7336 29.3529 20.9046 28.9459 22.4651 27.6568C23.8898 26.6392 25.7216 26.2999 27.4856 26.9784C28.6389 27.3854 29.5209 28.1317 30.1315 29.0816L30.1993 29.2172C30.4707 29.6243 30.8778 30.0314 31.4205 30.1671C32.6417 30.642 34.0665 29.9635 34.4735 28.7423C34.9485 27.5211 34.27 26.0964 33.0488 25.6893C32.5061 25.4858 31.9633 25.4858 31.4205 25.6893C30.335 26.0286 29.1138 26.0286 27.9605 25.6215C26.2644 25.0109 25.111 23.654 24.6361 22.0936L24.5682 21.9579C24.5682 21.89 24.5682 21.8222 24.5004 21.8222V21.6865C24.0255 19.7869 22.7364 18.1586 20.769 17.4801C17.7159 16.2589 14.2559 17.8194 13.1704 20.9402ZM16.6983 35.3903C13.6453 36.5436 12.017 40.0037 13.1704 43.0567C14.3237 46.1776 17.7159 47.738 20.769 46.5168C22.7364 45.8383 24.0255 44.2101 24.5004 42.3104V42.1747C24.5682 42.1747 24.5682 42.1069 24.5682 42.039L24.6361 41.9034C25.111 40.3429 26.2644 38.986 27.9605 38.3754C29.1138 37.9684 30.335 37.9684 31.4205 38.3076C31.9633 38.5111 32.5061 38.5111 33.0488 38.3076C34.27 37.9005 34.9485 36.4758 34.4735 35.2546C34.0665 34.0334 32.6417 33.3549 31.4205 33.8299C30.8778 33.9655 30.4707 34.3726 30.1993 34.7797L30.1315 34.9154C29.5209 35.8652 28.6389 36.6115 27.4856 37.0185C25.7216 37.697 23.8898 37.3578 22.4651 36.3401C20.9046 35.0511 18.7336 34.644 16.6983 35.3903Z" fill="#266CD3"/>
</svg>
