<svg width="64" height="64" viewBox="0 0 64 64" fill="none" xmlns="http://www.w3.org/2000/svg">
<g clip-path="url(#clip0_6109_4070)">
<path d="M63 31.9964C63 49.1151 49.1209 62.9928 32 62.9928C14.8791 62.9928 1 49.1151 1 31.9964C1 14.8777 14.8791 1 32 1C49.1209 1 63 14.8777 63 31.9964Z" fill="white" stroke="#F0F0F0" stroke-width="2"/>
<path d="M31.9959 9.9989L31.6899 11.0015V40.0917L31.9959 40.3862L45.9914 32.4044L31.9959 9.9989Z" fill="#343434"/>
<path d="M31.9959 9.9989L18 32.4044L31.9959 40.3862V26.2666V9.9989Z" fill="#8C8C8C"/>
<path d="M31.9959 42.9427L31.8235 43.1456V53.508L31.9959 53.9936L46 34.9651L31.9959 42.9427Z" fill="#3C3C3B"/>
<path d="M31.9959 53.9936V42.9427L18 34.9651L31.9959 53.9936Z" fill="#8C8C8C"/>
<path d="M31.9958 40.3862L45.9914 32.4044L31.9958 26.2666V40.3862Z" fill="#141414"/>
<path d="M18 32.4044L31.9959 40.3862V26.2666L18 32.4044Z" fill="#393939"/>
</g>
<defs>
<clipPath id="clip0_6109_4070">
<rect width="64" height="64" fill="white"/>
</clipPath>
</defs>
</svg>
