<svg width="64" height="65" viewBox="0 0 64 65" fill="none" xmlns="http://www.w3.org/2000/svg">
<path d="M32 64.4121C49.6731 64.4121 64 50.0852 64 32.4121C64 14.739 49.6731 0.412109 32 0.412109C14.3269 0.412109 0 14.739 0 32.4121C0 50.0852 14.3269 64.4121 32 64.4121Z" fill="#26A17B"/>
<path d="M35.4104 35.3653V35.3602C35.1891 35.3756 34.047 35.4425 31.5055 35.4425C29.4734 35.4425 28.0483 35.3859 27.5441 35.3602V35.3653C19.7293 35.0206 13.9004 33.6624 13.9004 32.0316C13.9004 30.4059 19.7345 29.0425 27.5441 28.6978V34.0123C28.0534 34.0483 29.5197 34.1358 31.5416 34.1358C33.9698 34.1358 35.184 34.0329 35.4104 34.0123V28.703C43.2097 29.0528 49.0232 30.411 49.0232 32.0367C49.0232 33.6624 43.2046 35.0206 35.4104 35.3705M35.4104 28.1525V23.3988H46.2914V16.1499H16.6682V23.3988H27.5493V28.1525C18.7055 28.5589 12.0586 30.3081 12.0586 32.4071C12.0586 34.5062 18.7107 36.2554 27.5493 36.6669V51.9055H35.4155V36.6669C44.2438 36.2605 50.8805 34.5113 50.8805 32.4123C50.8805 30.3184 44.2438 28.564 35.4155 28.1576" fill="white"/>
</svg>
